<?xml version="1.0" standalone="no"?><!DOCTYPE svg PUBLIC "-//W3C//DTD SVG 1.1//EN" "http://www.w3.org/Graphics/SVG/1.1/DTD/svg11.dtd"><svg t="1653919377816" class="icon" viewBox="0 0 1024 1024" version="1.1" xmlns="http://www.w3.org/2000/svg" p-id="2251" width="48" height="48" xmlns:xlink="http://www.w3.org/1999/xlink"><defs><style type="text/css">@font-face { font-family: feedback-iconfont; src: url("//at.alicdn.com/t/font_1031158_u69w8yhxdu.woff2?t=1630033759944") format("woff2"), url("//at.alicdn.com/t/font_1031158_u69w8yhxdu.woff?t=1630033759944") format("woff"), url("//at.alicdn.com/t/font_1031158_u69w8yhxdu.ttf?t=1630033759944") format("truetype"); }
</style></defs><path d="M511.9968 1023.9936a511.9968 511.9968 0 0 1-511.9968-502.972856l91.647427 43.647727 100.543372-43.007731 0.063999 4.223973a319.998 319.998 0 0 0 379.773627 300.478122l-2.943982 3.711977 101.311367 76.031525 7.167955 90.495434A511.356804 511.356804 0 0 1 511.9328 1023.9936z m511.9968-511.9968a511.740802 511.740802 0 0 1-253.438416 441.981238l-7.871951-98.687384-89.215442-66.943581a319.870001 319.870001 0 0 0 81.087493-485.052969l14.46391-119.87125 81.087493-55.871651A510.716808 510.716808 0 0 1 1023.9296 511.9968z" fill="#1296db" p-id="2252"></path><path d="M767.163205 68.031575l-88.319448 60.79962-12.351923 102.911357a320.125999 320.125999 0 0 0-458.045137 178.686883l-114.559284 48.895694-85.439466-40.639746a512.124799 512.124799 0 0 1 741.115368-360.317748l17.59989 9.59994z" fill="#1296db" p-id="2253"></path></svg>