<?xml version="1.0" standalone="no"?><!DOCTYPE svg PUBLIC "-//W3C//DTD SVG 1.1//EN" "http://www.w3.org/Graphics/SVG/1.1/DTD/svg11.dtd"><svg t="1653967773004" class="icon" viewBox="0 0 1024 1024" version="1.1" xmlns="http://www.w3.org/2000/svg" p-id="30449" xmlns:xlink="http://www.w3.org/1999/xlink" width="64" height="64"><defs><style type="text/css">@font-face { font-family: feedback-iconfont; src: url("//at.alicdn.com/t/font_1031158_u69w8yhxdu.woff2?t=1630033759944") format("woff2"), url("//at.alicdn.com/t/font_1031158_u69w8yhxdu.woff?t=1630033759944") format("woff"), url("//at.alicdn.com/t/font_1031158_u69w8yhxdu.ttf?t=1630033759944") format("truetype"); }
</style></defs><path d="M853.333333 938.666667H170.666667a85.333333 85.333333 0 0 1-85.333334-85.333334V170.666667a85.333333 85.333333 0 0 1 85.333334-85.333334h682.666666a85.333333 85.333333 0 0 1 85.333334 85.333334v682.666666a85.333333 85.333333 0 0 1-85.333334 85.333334z m21.333334-768a21.333333 21.333333 0 0 0-21.333334-21.333334H170.666667a21.333333 21.333333 0 0 0-21.333334 21.333334v682.666666a21.333333 21.333333 0 0 0 21.333334 21.333334h682.666666a21.333333 21.333333 0 0 0 21.333334-21.333334V170.666667z" fill="#707070" p-id="30450"></path><path d="M416 298.666667H298.666667v117.333333a32 32 0 0 1-64 0v-149.333333a32 32 0 0 1 32-32h149.333333a32 32 0 0 1 0 64z m341.333333 490.666666h-149.333333a32 32 0 0 1 0-64H725.333333v-117.333333a32 32 0 0 1 64 0v149.333333a32 32 0 0 1-32 32z" fill="#707070" p-id="30451"></path></svg>