<?xml version="1.0" standalone="no"?><!DOCTYPE svg PUBLIC "-//W3C//DTD SVG 1.1//EN" "http://www.w3.org/Graphics/SVG/1.1/DTD/svg11.dtd"><svg t="1653967686227" class="icon" viewBox="0 0 1024 1024" version="1.1" xmlns="http://www.w3.org/2000/svg" p-id="28547" xmlns:xlink="http://www.w3.org/1999/xlink" width="64" height="64"><defs><style type="text/css">@font-face { font-family: feedback-iconfont; src: url("//at.alicdn.com/t/font_1031158_u69w8yhxdu.woff2?t=1630033759944") format("woff2"), url("//at.alicdn.com/t/font_1031158_u69w8yhxdu.woff?t=1630033759944") format("woff"), url("//at.alicdn.com/t/font_1031158_u69w8yhxdu.ttf?t=1630033759944") format("truetype"); }
</style></defs><path d="M950.093 487.772L770.318 314.694c-14.382-13.851-35.955-13.851-50.336 0-14.382 13.842-14.382 34.614 0 48.465l118.647 114.228H493.461c-21.573 0-35.955 13.842-35.955 34.614s14.382 34.614 35.955 34.614h345.168L719.99 660.843c-14.382 13.851-14.382 34.623 0 48.465 7.192 6.93 14.382 10.386 25.164 10.386 10.792 0 17.982-3.465 25.173-10.386l179.775-176.535s0-3.465 3.6-3.465c10.782-10.386 10.782-31.149-3.6-41.535z" p-id="28548" fill="#707070"></path><path d="M853.01 754.307c-21.573 0-35.955 13.851-35.955 34.614v69.237c0 20.763-14.382 34.614-35.955 34.614H169.865c-21.573 0-35.955-13.851-35.955-34.614V165.841c0-20.763 14.382-34.614 35.955-34.614H781.1c21.573 0 35.955 13.851 35.955 34.614v69.237c0 20.764 14.382 34.614 35.955 34.614s35.955-13.851 35.955-34.614v-69.237c0-58.842-46.736-103.842-107.865-103.842H169.865c-61.119 0-107.865 45-107.865 103.842v692.317C62 917 108.747 962 169.865 962H781.1c61.128 0 107.865-45 107.865-103.842v-69.237c0-20.764-14.382-34.614-35.955-34.614z" p-id="28549" fill="#707070"></path></svg>